# xmcd
# 
# Track frame offsets:
#     150
#     17277
#     37545
#     55852
#     72742
#     92782
#     110655
#     135175
# 
# Disc length: 2072
# 
# Revision: 1
# Processed by: cddbd v1.5.2PL0 Copyright (c) Steve Scherf et al.
# Submitted via: fre:ac v1.0.17
# 
DISCID=5c081608
DTITLE=이수영 - 클래식  - 더 리메이크 두번째
DYEAR=2013
DGENRE=Ballad
TTITLE0=사랑하면 할수록
TTITLE1=희재
TTITLE2=DondeVoy
TTITLE3=제3한강교
TTITLE4=인연
TTITLE5=모처럼
TTITLE6=눈의꽃
TTITLE7=옛이야기
EXTD=
EXTT0=
EXTT1=
EXTT2=
EXTT3=
EXTT4=
EXTT5=
EXTT6=
EXTT7=
PLAYORDER=
